
<svg width="386" height="257" xmlns="http://www.w3.org/2000/svg" viewBox="0 0 386 257">
 <g>
  <title>Layer 1</title>
  <g id="svg_2">
   <g id="svg_3" text-anchor="middle" font-family="'Brandmark1 Bold'" font-size="32px" font-weight="700" font-style="normal"/>
   <g id="svg_4" text-anchor="middle" font-family="'Brandmark Sans 14 Color'" font-size="72px" font-weight="normal" font-style="normal">
    <g id="svg_5" transform="translate(0 394.268)" aria-label="D">
     <path id="svg_6" stroke="#ffffff" fill="#ffffff" stroke-miterlimit="2" stroke-width="0" d="m47.23923,-166.94749c-0.01436,20.2262 -17.32749,27.72575 -26.51413,27.72575l-13.8002,0l0,-0.05108l-6.9249,0l0,-55.39973l20.7251,0c9.18664,0 26.49976,7.49955 26.51413,27.72507zm-14.6514,0.00081c-0.01111,-9.27322 -6.02885,-15.44759 -15.3644,-15.44759l-3.37363,0l0,30.89504l3.37363,0c9.33554,0.00001 15.35329,-6.17436 15.3644,-15.44745z" class="c1"/>
    </g>
    <g id="svg_7" transform="translate(0 394.268)" aria-label="O">
     <path id="svg_8" stroke="#ffffff" fill="#ffffff" stroke-miterlimit="2" stroke-width="0" d="m100.0102,-166.74461c0,16.10286 -13.35848,29.15579 -29.8383,29.15579c-16.47818,0 -29.83721,-13.05293 -29.83721,-29.15579s13.35903,-29.15647 29.83721,-29.15647c16.47982,0 29.8383,13.05361 29.8383,29.15647zm-14.28909,0c0,-8.39071 -6.96081,-15.19326 -15.54921,-15.19326c-8.58733,0 -15.54813,6.80255 -15.54813,15.19326s6.96189,15.19339 15.54813,15.19339c8.5884,0.00001 15.54921,-6.80267 15.54921,-15.19339z" class="c1"/>
    </g>
    <g id="svg_9" transform="translate(0 394.268)" aria-label="G">
     <path id="svg_10" stroke="#ffffff" fill="#ffffff" stroke-miterlimit="2" stroke-width="0" d="m148.26733,-170.0808c0,28.61542 -18.95401,32.82603 -27.92019,32.82603c-18.12259,0 -28.71529,-13.14318 -28.71529,-29.35633c0,-16.21397 10.5927,-29.35715 28.71529,-29.35715c11.40406,0 20.5247,6.03047 25.22811,14.95505l-13.63544,5.76747c-2.29208,-4.94337 -6.58032,-8.25563 -11.91299,-8.25563c-8.66971,0 -13.73706,7.56188 -13.73706,16.89024c0,9.32742 5.06736,16.88929 13.73706,16.88929c10.76207,0 12.12653,-7.80008 12.12653,-9.58405l-12.11461,0l0,-10.77168l12.83464,0l0,-0.00325l15.39394,0z" class="c1"/>
    </g>
    <g id="svg_11" transform="translate(0 394.268)" aria-label="S">
     <path id="svg_12" stroke="#ffffff" fill="#ffffff" stroke-miterlimit="2" stroke-width="0" d="m179.8544,-156.36782c0,12.81866 -10.08322,18.77325 -20.86887,18.77325s-18.93938,-6.23345 -18.93938,-6.23345l6.00365,-11.58711c3.6514,3.81901 9.60789,5.62927 12.93573,5.62927c3.33,0 6.14619,-2.57432 6.14619,-5.26152c0,-9.75424 -22.86991,-3.59273 -22.86991,-22.73359c0,-12.26881 8.78678,-18.18736 18.65321,-18.18736c9.51088,0 16.72317,4.47347 16.72317,4.47347l-5.57384,11.221c0,0 -4.66275,-3.74056 -9.0052,-3.74056c-3.23895,0 -6.14565,1.20201 -6.14565,4.76682c-0.00001,8.28516 22.94035,2.9525 22.94089,22.87979z" class="c1"/>
    </g>
    <g id="svg_13" aria-label="E">
     <path id="svg_14" stroke="#ffffff" fill="#ffffff" stroke-miterlimit="2" stroke-width="0" d="m191.5454,242.68439l17.02451,0l0,12.31122l-30.87431,0l0,-55.39973l13.84979,0l0,0.10393l17.02451,0l0,12.31108l-17.02451,0l0,30.67351z" class="c1"/>
     <path id="svg_15" stroke="#f65429" fill="#f65429" stroke-miterlimit="2" stroke-width="0" d="m194.67216,227.34249c0,-4.13148 3.24517,-7.48045 7.2486,-7.48045c4.00262,0 7.24779,3.34897 7.24779,7.48045s-3.24517,7.4803 -7.24779,7.4803c-4.00343,0 -7.2486,-3.34884 -7.2486,-7.4803z" class="c3"/>
    </g>
    <g id="svg_16" aria-label="A">
     <path id="svg_17" stroke="#ffffff" fill="#ffffff" stroke-miterlimit="2" stroke-width="0" d="m260.5491,254.99561l-15.3892,0l-12.76824,-38.30814l-12.77002,38.30814l-15.38824,0l20.00493,-55.39973l16.30502,0l20.00574,55.39973z" class="c1"/>
     <path id="svg_18" stroke="#f65429" fill="#f65429" stroke-miterlimit="2" stroke-width="0" d="m225.10227,245.25329c0,-4.13148 3.24504,-7.4803 7.24779,-7.4803s7.24779,3.34884 7.24779,7.4803s-3.24504,7.4803 -7.24779,7.4803s-7.24779,-3.34883 -7.24779,-7.4803z" class="c3"/>
    </g>
    <g id="svg_19" transform="translate(0 394.268)" aria-label="R">
     <path id="svg_20" stroke="#ffffff" fill="#ffffff" stroke-miterlimit="2" stroke-width="0" d="m298.26297,-139.27282l-16.9275,0l-12.26637,-19.94505l-1.43465,0l0,19.94505l-13.85007,0l0,-55.39973l21.98646,0c5.86815,0 17.46299,2.41782 17.46299,17.72775c0,10.32495 -5.27412,14.78257 -10.50869,16.59282l15.53784,21.07916zm-19.00332,-37.67198c0,-5.06411 -3.3235,-6.55797 -6.66596,-6.55797l-4.95922,0l0,13.11594l4.95922,0c3.34247,0 6.66596,-1.49373 6.66596,-6.55797z" class="c1"/>
    </g>
    <g id="svg_21" transform="translate(0 394.268)" aria-label="C">
     <path id="svg_22" stroke="#ffffff" fill="#ffffff" stroke-miterlimit="2" stroke-width="0" d="m343.98453,-152.51118c-4.68769,9.09083 -13.92486,15.25641 -25.36063,15.25641c-18.12259,0 -28.71529,-13.14318 -28.71529,-29.35633c0,-16.21397 10.5927,-29.35715 28.71529,-29.35715c11.40378,0 20.52443,6.03047 25.22729,14.95424l-13.63544,5.7676c-2.29236,-4.94351 -6.5806,-8.25576 -11.91326,-8.25576c-8.66971,0 -13.73706,7.56188 -13.73706,16.89024c0,9.32742 5.06736,16.88929 13.73706,16.88929c5.32155,0 9.64475,-3.35534 11.94198,-8.35156l13.74006,5.56301z" class="c1"/>
    </g>
    <g id="svg_23" transform="translate(0 394.268)" aria-label="H">
     <path id="svg_24" stroke="#ffffff" fill="#ffffff" stroke-miterlimit="2" stroke-width="0" d="m386.37161,-194.67256l0,55.39973l-13.8498,0l0,-22.99497l-20.54123,0l0,22.99497l-13.84954,0l0,-55.39973l13.84953,0l0,21.63295l20.54124,0l0,-21.63295l13.8498,0z" class="c1"/>
    </g>
   </g>
   <g id="svg_25" fill="#000000">
    <path transform="rotate(-180 193.186 89.0121)" stroke="null" fill="#f65429" id="svg_26" d="m190.27748,130.75783c-17.4283,-41.70017 -21.0782,-51.18992 -30.56796,-80.57166c-5.83985,-18.34077 -10.85847,-33.48788 -11.04096,-33.76162c-0.82123,-1.00372 -7.57355,3.74115 -12.77467,8.94227c-5.47486,5.47486 -5.7486,5.65735 -6.29609,3.46741c-0.91248,-3.64991 1.36871,-15.23835 3.74115,-19.3445c1.27747,-2.0987 4.19739,-5.10987 6.56983,-6.66108l4.19739,-2.82868l49.63871,0c27.28304,0 49.54746,0.36499 49.54746,0.82123c0,0.36499 -0.82123,1.82495 -1.82495,3.10242c-2.28119,2.82868 -9.581,5.7486 -18.15828,7.11732l-6.29609,1.09497l-0.63873,4.19739c-1.18622,8.39478 -3.19367,12.77467 -8.75977,18.79701c-5.29236,5.65735 -13.4134,10.76722 -21.0782,13.23091l-3.46741,1.00372l1.36871,2.73743c1.18622,2.28119 1.82495,2.55493 3.92365,2.0987c5.20111,-1.18622 17.4283,-7.75605 21.80818,-11.6797c2.55493,-2.37244 4.83612,-4.19739 5.10987,-4.19739c0.27374,0 0.72998,1.09497 1.09497,2.55493c1.82495,7.48231 4.37989,14.87336 5.01862,14.14338c0.36499,-0.36499 3.74115,-9.85474 7.39106,-21.0782l6.75232,-20.34822l5.47486,-2.91992c4.28864,-2.37244 5.83985,-3.8324 7.29981,-6.84357c1.64246,-3.37616 2.0987,-3.74115 5.29236,-3.8324c1.9162,0 3.37616,0.45624 3.37616,1.00372c0,0.54749 -1.7337,2.73743 -3.8324,4.83612l-3.74115,3.74115l-11.77094,56.39103c-6.38733,31.02419 -11.6797,57.39476 -11.6797,58.58098c0,2.46369 7.93854,10.03724 16.97206,16.24208l5.65735,3.8324l2.37244,8.48603c1.36871,4.65363 2.18994,8.85102 1.9162,9.39851c-0.36499,0.45624 -4.37989,0.82123 -8.94227,0.82123c-4.65363,0 -13.5959,0.27374 -19.89198,0.63873l-11.4972,0.54749l-1.27747,6.75232l-1.27747,6.75232l-19.70949,-47.26627z"/>
   </g>
  </g>
 </g>
</svg>